# xmcd CD database file
#
# Track frame offsets:
#	150
#	7964
#	22481
#	32913
#	44399
#	55256
#	66407
#	75174
#	85338
#	98466
#	109150
#	119716
#	132230
#	146697
#	157853
#	167210
#	177326
#	187770
#	199104
#	213244
#
# Disc length: 2919 seconds
#
# Revision: 0
# Processed by: cddbd v1.5PL3 Copyright (c) Steve Scherf et al.
# Submitted via: CDex 1.50beta10
#
DISCID=110b6514
DTITLE=Various Country - Country Gold CD3
DYEAR=1900
DGENRE=Country
TTITLE0=bill monroe - footprints in the snow
TTITLE1=don williams - when i'm with you
TTITLE2=marlene haggard - corrinna corrinna
TTITLE3=carl perkins - born to boogie
TTITLE4=kenny rogers - always leaving, always gone
TTITLE5=johnny cash - cry, cry, cry
TTITLE6=anne murray - paths of victory
TTITLE7=johnny paycheck - a - 11
TTITLE8=porter wagoner - not a cloud in the sky
TTITLE9=patsy cline - honkey tonkey merry go around
TTITLE10=patsy cline - gotta lot of rhythm
TTITLE11=faron young - it's four in then morning
TTITLE12=jim reeves - dear hearts and gentle people
TTITLE13=merle haggard - tb. blues
TTITLE14=waylon jennings - big mamou
TTITLE15=carl perkins - daddy sang bass
TTITLE16=jackson stonewall - things to talk about
TTITLE17=johnny lee - candy store
TTITLE18=johnny paycheck - someone to give my love to
TTITLE19=jim reeves - have i told you lately that i
EXTD=
EXTT0=
EXTT1=
EXTT2=
EXTT3=
EXTT4=
EXTT5=
EXTT6=
EXTT7=
EXTT8=
EXTT9=
EXTT10=
EXTT11=
EXTT12=
EXTT13=
EXTT14=
EXTT15=
EXTT16=
EXTT17=
EXTT18=
EXTT19=
PLAYORDER=
